# xmcd
#
# Track frame offsets:
#	150
#	12408
#	23196
#	32919
#	44833
#	55120
#	66460
#	77065
#	89464
#	100252
#
# Disc length: 1479
#
# Revision: 1
# Processed by: cddbd v1.5.1PL0 Copyright (c) Steve Scherf et al.
# Submitted via: dBpowerAMP V4.0
# Normalized: r0:TDELIM( - )
#
DISCID=8605c50a
DTITLE=Various Artist - Country Classics Hits of 1957
DYEAR=1900
DGENRE=Country
TTITLE0=Bobby Helms - Fraulein
TTITLE1=Ferlin Husky - Gone
TTITLE2=Hank Locklin - Geisha girl
TTITLE3=Warner Mack - Is it wrong (For loving you)
TTITLE4=Jimmy C. Newman - A fallen star
TTITLE5=Ray Price - My shoes keep walking back to you
TTITLE6=Marvin Rainwater - Gonna find me a bluebird
TTITLE7=Bonnie Guitar - Dark moon
TTITLE8=Carl Smith - Why, why
TTITLE9=Faron Young - I miss you already (and you're not even gone)
EXTD=
EXTT0=
EXTT1=
EXTT2=
EXTT3=
EXTT4=
EXTT5=
EXTT6=
EXTT7=
EXTT8=
EXTT9=
PLAYORDER=
